<svg xmlns="http://www.w3.org/2000/svg" width="601" height="284" viewBox="0 0 601 284">
  <g fill="none" fill-rule="evenodd">
    <g transform="translate(333)">
      <path fill="#1A1919" d="M85.28 123.662C85.28 126.487 83.553 128.213 80.727 128.213L64.007 128.213 64.007 86.139 80.727 86.139C83.553 86.139 85.28 87.866 85.28 90.692L85.28 123.662zM82.062 81.036L59.914 81.036C59.14 81.036 58.512 81.663 58.512 82.438L58.512 131.914C58.512 132.688 59.14 133.316 59.914 133.316L82.062 133.316C87.085 133.316 90.774 129.625 90.774 124.604L90.774 89.75C90.774 84.65 87.085 81.036 82.062 81.036zM112.634 151.122L95.869 151.122C95.095 151.122 94.467 151.75 94.467 152.523L94.467 157.964C94.467 158.738 95.095 159.365 95.869 159.365L105.008 159.365 105.008 202C105.008 202.774 105.636 203.402 106.41 203.402L112.634 203.402C113.408 203.402 114.035 202.774 114.035 202L114.035 152.523C114.035 151.75 113.408 151.122 112.634 151.122M80.413 193.119C80.413 194.296 79.471 195.161 78.293 195.161L69.659 195.161C68.481 195.161 67.539 194.296 67.539 193.119L67.539 186.133C67.539 184.955 68.167 184.013 69.659 183.542 71.542 182.913 76.331 181.97 78.293 181.97 79.627 181.97 80.413 182.836 80.413 184.013L80.413 193.119zM81.119 173.418C77.272 173.418 71.778 174.36 67.539 175.693L67.539 161.405C67.539 160.227 68.481 159.365 69.659 159.365L84.764 159.365C85.538 159.365 86.165 158.738 86.165 157.964L86.165 152.523C86.165 151.75 85.538 151.122 84.764 151.122L66.833 151.122C62.201 151.122 58.512 154.812 58.512 159.365L58.512 195.161C58.512 199.712 62.123 203.402 66.676 203.402L81.119 203.402C85.751 203.402 89.439 199.712 89.439 195.161L89.439 181.659C89.439 177.106 86.457 173.418 81.119 173.418zM170.255 81.036L136.401 81.036C135.627 81.036 134.999 81.663 134.999 82.438L134.999 84.737C134.999 85.511 135.627 86.139 136.401 86.139L150.62 86.139 150.62 131.914C150.62 132.688 151.248 133.316 152.022 133.316L154.713 133.316C155.487 133.316 156.115 132.688 156.115 131.914L156.115 86.139 170.255 86.139C171.029 86.139 171.657 85.511 171.657 84.737L171.657 82.438C171.657 81.663 171.029 81.036 170.255 81.036M109.482 114.792L118.273 87.866 126.986 114.792 109.482 114.792zM138.277 131.464L121.186 81.972C120.993 81.429 120.473 81.036 119.864 81.036L116.681 81.036C116.072 81.036 115.553 81.429 115.359 81.972L98.273 131.455C98.222 131.6 98.188 131.751 98.188 131.914 98.188 132.688 98.815 133.316 99.589 133.316L102.194 133.316C102.796 133.316 103.306 132.932 103.505 132.4L103.51 132.402 107.754 119.813 128.634 119.813 133.01 132.358 133.01 132.355C133.197 132.91 133.72 133.316 134.338 133.316L136.952 133.316C137.726 133.316 138.353 132.688 138.353 131.914 138.353 131.754 138.326 131.607 138.277 131.464zM180.177 114.792L188.968 87.866 197.681 114.792 180.177 114.792zM208.972 131.464L191.881 81.972C191.688 81.429 191.168 81.036 190.559 81.036L187.376 81.036C186.767 81.036 186.248 81.429 186.054 81.972L168.811 131.369 168.968 131.455C168.917 131.6 168.883 131.751 168.883 131.914 168.883 132.688 169.51 133.316 170.285 133.316L172.889 133.316C173.491 133.316 174.001 132.932 174.2 132.4L174.205 132.402 178.449 119.813 199.329 119.813 203.705 132.358 203.705 132.355C203.892 132.91 204.415 133.316 205.033 133.316L207.646 133.316C208.421 133.316 209.048 132.688 209.048 131.914 209.048 131.754 209.021 131.607 208.972 131.464z"/>
      <path fill="#39B688" d="M21.405 53.887L21.405 53.886 21.403 53.884 21.403 59.676C21.4 60.048 21.494 60.426 21.693 60.77 21.895 61.119 22.181 61.392 22.509 61.576L27.512 64.464 27.51 64.461 27.511 64.461 27.51 64.461C28.144 64.792 28.917 64.838 29.582 64.453L118.419 13.163C119.084 12.779 119.431 12.088 119.461 11.374L119.461 11.373 119.463 11.376 119.464 5.584C119.466 5.213 119.373 4.835 119.173 4.49 118.972 4.141 118.686 3.868 118.358 3.684L113.354.797 113.356.799C112.723.468 111.95.423 111.285.807 101.276 6.585 22.474 52.082 22.447 52.097 21.783 52.481 21.436 53.173 21.405 53.887M27.51 220.069L27.511 220.068 27.511 220.069 27.512 220.066 22.496 222.962C22.173 223.145 21.893 223.416 21.693 223.76 21.492 224.109 21.398 224.493 21.403 224.869L21.403 230.646 21.405 230.643C21.436 231.357 21.783 232.05 22.447 232.433L111.285 283.723C111.95 284.107 112.722 284.062 113.356 283.731L113.355 283.731 113.356 283.731 113.354 283.734 118.371 280.839C118.694 280.655 118.974 280.384 119.173 280.04 119.375 279.691 119.468 279.306 119.463 278.93L119.463 273.154 119.461 273.157C119.431 272.442 119.084 271.751 118.419 271.367 108.41 265.589 29.607 220.092 29.582 220.077 28.917 219.693 28.144 219.738 27.51 220.069M148.004 273.161L148.003 273.16 148.003 273.161 148.002 273.158 148.001 278.95C147.999 279.321 148.093 279.699 148.292 280.044 148.493 280.393 148.779 280.666 149.107 280.849L154.11 283.738 154.108 283.735 154.109 283.735C154.742 284.066 155.515 284.111 156.18 283.727L245.018 232.437C245.683 232.053 246.029 231.362 246.06 230.647L246.06 230.648 246.06 230.647 246.061 230.65 246.062 224.858C246.064 224.487 245.971 224.109 245.771 223.764 245.57 223.415 245.284 223.142 244.956 222.959L239.953 220.07 239.955 220.073 239.954 220.073 239.954 220.074C239.321 219.742 238.549 219.697 237.884 220.081 227.874 225.859 149.072 271.356 149.046 271.371 148.381 271.755 148.034 272.446 148.004 273.161M266.436 89.173L266.439 89.173 261.424 86.277C261.103 86.089 260.729 85.981 260.331 85.981 259.928 85.981 259.549 86.092 259.226 86.284L254.223 89.173 254.227 89.173 254.226 89.173 254.227 89.173C253.622 89.556 253.197 90.203 253.197 90.971L253.197 193.551C253.197 194.319 253.622 194.966 254.226 195.348L254.225 195.348 254.226 195.348 254.223 195.348 259.238 198.245C259.559 198.433 259.933 198.541 260.331 198.541 260.734 198.541 261.113 198.429 261.436 198.238L266.439 195.348 266.436 195.348C267.039 194.966 267.465 194.319 267.465 193.551 267.465 181.994 267.465 91.001 267.465 90.971 267.465 90.203 267.04 89.556 266.436 89.173M13.239 89.173L13.24 89.173 13.239 89.173 13.242 89.173 8.227 86.277C7.906 86.089 7.532 85.981 7.134 85.981 6.731 85.981 6.352 86.092 6.028 86.284L1.026 89.173 1.029 89.173C.426 89.556 0 90.203 0 90.971L0 193.551C0 194.319.425 194.966 1.029 195.348L1.028 195.348 1.029 195.348 1.026 195.348 6.042 198.245C6.362 198.433 6.736 198.541 7.134 198.541 7.537 198.541 7.917 198.429 8.24 198.238L13.242 195.348 13.239 195.348C13.843 194.966 14.268 194.319 14.268 193.551 14.268 181.994 14.268 91.001 14.268 90.971 14.268 90.203 13.843 89.556 13.239 89.173"/>
    </g>
    <g fill="#1A1919">
      <path d="M221.393 180.688C213.622 180.688 208.24 186.828 208.24 194.347L208.24 194.477C208.24 201.982 213.747 208.258 221.523 208.258 229.289 208.258 234.678 202.117 234.678 194.597L234.678 194.477C234.678 186.958 229.163 180.688 221.393 180.688M174.026 181.257L164.444 181.257 164.444 193.85 174.212 193.85C178.916 193.85 181.595 191.344 181.595 187.646L181.595 187.522C181.595 183.385 178.724 181.257 174.026 181.257"/>
      <path d="M221.393,217.145 C207.865,217.145 198.155,207.071 198.155,194.597 L198.155,194.477 C198.155,182.002 207.993,171.791 221.523,171.791 C235.054,171.791 244.754,181.882 244.754,194.347 L244.754,194.477 C244.754,206.938 234.921,217.145 221.393,217.145 Z M193.989,115.276 L193.989,75.337 C193.989,71.454 197.142,68.306 201.02,68.306 C204.904,68.306 208.044,71.454 208.044,75.337 L208.044,115.276 C208.044,119.149 204.904,122.303 201.02,122.303 C197.142,122.303 193.989,119.149 193.989,115.276 Z M181.416,216.394 L172.018,202.375 L164.444,202.375 L164.444,216.394 L154.795,216.394 L154.795,172.546 L174.837,172.546 C185.166,172.546 191.372,177.998 191.372,187.016 L191.372,187.145 C191.372,194.219 187.559,198.673 181.979,200.738 L192.693,216.394 L181.416,216.394 Z M146.888,122.02 L146.888,61.833 C146.888,57.954 150.035,54.802 153.925,54.802 C157.801,54.802 160.951,57.954 160.951,61.833 L160.951,122.02 C160.951,125.896 157.801,129.049 153.925,129.049 C150.035,129.049 146.888,125.896 146.888,122.02 Z M177.471,142.553 C181.666,142.553 185.069,145.951 185.069,150.139 C185.069,154.335 181.666,157.728 177.471,157.728 C173.279,157.728 169.878,154.335 169.878,150.139 C169.878,145.951 173.279,142.553 177.471,142.553 Z M170.44,41.586 C170.44,37.699 173.591,34.555 177.471,34.555 C181.358,34.555 184.497,37.699 184.497,41.586 L184.497,128.768 C184.497,132.646 181.358,135.801 177.471,135.801 C173.591,135.801 170.44,132.646 170.44,128.768 L170.44,41.586 Z M142.453,193.85 L142.453,216.394 L132.808,216.394 L132.808,172.546 L142.453,172.546 L142.453,193.85 Z M123.333,101.767 L123.333,41.586 C123.333,37.699 126.489,34.555 130.371,34.555 C134.247,34.555 137.396,37.699 137.396,41.586 L137.396,101.767 C137.396,105.654 134.247,108.799 130.371,108.799 C126.489,108.799 123.333,105.654 123.333,101.767 Z M122.137,203.431 C122.137,212.149 115.499,217.023 106.04,217.023 C99.401,217.023 92.704,214.708 87.441,210.008 L93.133,203.177 C97.079,206.437 101.219,208.508 106.239,208.508 C110.184,208.508 112.558,206.938 112.558,204.371 L112.558,204.25 C112.558,201.796 111.05,200.548 103.72,198.673 C94.903,196.414 89.188,193.963 89.188,185.263 L89.188,185.137 C89.188,177.186 95.578,171.921 104.534,171.921 C110.926,171.921 116.387,173.916 120.825,177.499 L115.812,184.761 C111.934,182.069 108.114,180.436 104.41,180.436 C100.716,180.436 98.772,182.128 98.772,184.26 L98.772,184.399 C98.772,187.272 100.651,188.202 108.234,190.139 C117.129,192.468 122.137,195.661 122.137,203.31 L122.137,203.431 Z M76.241,115.276 L76.241,75.337 C76.241,71.454 79.386,68.306 83.272,68.306 C87.151,68.306 90.293,71.454 90.293,75.337 L90.293,115.276 C90.293,119.149 87.151,122.303 83.272,122.303 C79.386,122.303 76.241,119.149 76.241,115.276 Z M63.16,217.145 C50.262,217.145 40.673,207.186 40.673,194.597 L40.673,194.477 C40.673,182.002 50.065,171.791 63.536,171.791 C71.816,171.791 76.753,174.56 80.831,178.562 L74.69,185.634 C71.298,182.576 67.862,180.688 63.472,180.688 C56.085,180.688 50.753,186.828 50.753,194.347 L50.753,194.477 C50.753,201.982 55.959,208.258 63.472,208.258 C68.496,208.258 71.556,206.251 75.002,203.115 L81.143,209.323 C76.63,214.141 71.62,217.145 63.16,217.145 Z M99.785,55.082 C99.785,51.199 102.934,48.051 106.819,48.051 C110.699,48.051 113.852,51.199 113.852,55.082 L113.852,108.518 C113.852,112.401 110.699,115.553 106.819,115.553 C102.934,115.553 99.785,112.401 99.785,108.518 L99.785,55.082 Z M142.717,0.535 C64.436,0.535 0.981,63.984 0.981,142.264 C0.981,220.548 64.436,284 142.717,284 C220.997,284 284.453,220.548 284.453,142.264 C284.453,63.984 220.997,0.535 142.717,0.535 Z"/>
    </g>
  </g>
</svg>
